<svg width="50" height="50" viewBox="0 0 50 50" fill="none" xmlns="http://www.w3.org/2000/svg">
<path d="M50 25C50 38.8071 38.8071 50 25 50C11.1929 50 0 38.8071 0 25C0 11.1929 11.1929 0 25 0C38.8071 0 50 11.1929 50 25Z" fill="#1B63EF"/>
<path d="M23.6819 26.1638L24.1666 25.884C24.6094 25.6283 25.3275 25.6283 25.7703 25.884L26.255 26.1638L24.9685 26.9066L23.6819 26.1638Z" fill="white"/>
<path d="M23.6819 26.1655L24.9685 26.9082V38.1985L23.6819 37.4557V26.1655Z" fill="white"/>
<path d="M24.9259 26.9124L26.2125 26.1697L26.2125 37.4599L24.9259 38.2027V26.9124Z" fill="white"/>
<path d="M24.9928 38.167L31.4255 34.4531V36.4983C31.4255 37.0097 31.0665 37.6315 30.6236 37.8872L24.9928 41.1381V38.167Z" fill="white"/>
<path d="M18.5721 34.453L25.0048 38.1669V41.138L19.374 37.8871C18.9311 37.6314 18.5721 37.0095 18.5721 36.4982V34.453Z" fill="white"/>
<path d="M25.8192 22.4202L27.1057 23.163V24.6486L26.6211 24.3687C26.1782 24.1131 25.8192 23.4912 25.8192 22.9799V22.4202Z" fill="white"/>
<path d="M25.8192 22.4202L34.8249 17.2208L36.1115 17.9635L27.1057 23.163L25.8192 22.4202Z" fill="white"/>
<path d="M29.5646 14.2502L31.3358 13.2276C31.7786 12.9719 32.4967 12.9719 32.9395 13.2276L38.5703 16.4785L35.9973 17.9641L29.5646 14.2502Z" fill="white"/>
<path d="M27.0699 23.1614L36.0756 17.9619V19.4475L27.0699 24.6469V23.1614Z" fill="white"/>
<path d="M35.9786 17.9341L38.5516 16.4485V22.9504C38.5516 23.4618 38.1926 24.0836 37.7498 24.3393L35.9786 25.3619V17.9341Z" fill="white"/>
<path d="M11.4336 16.4196L17.0644 13.1686C17.5073 12.9129 18.2253 12.9129 18.6681 13.1686L20.4393 14.1912L14.0067 17.9051L11.4336 16.4196Z" fill="white"/>
<path d="M22.9641 23.0743L24.2506 22.3315V22.8912C24.2506 23.4026 23.8916 24.0244 23.4487 24.2801L22.9641 24.5599V23.0743Z" fill="white"/>
<path d="M13.9885 17.8747L22.9942 23.0741V24.5597L13.9885 19.3602V17.8747Z" fill="white"/>
<path d="M11.4336 16.3895L14.0067 17.875L14.0067 25.3029L12.2355 24.2803C11.7926 24.0246 11.4336 23.4027 11.4336 22.8914L11.4336 16.3895Z" fill="white"/>
<path d="M14.0286 17.9279C14.0064 17.9151 14.0064 17.8944 14.0286 17.8816L15.2349 17.1851C15.2571 17.1723 15.293 17.1723 15.3151 17.1851L24.2407 22.3383C24.2628 22.3511 24.2628 22.3718 24.2407 22.3846L23.0343 23.0811C23.0122 23.0939 22.9763 23.0939 22.9541 23.0811L14.0286 17.9279Z" fill="white"/>
<path d="M35.9693 26.823C35.9693 26.3116 36.3284 25.6898 36.7712 25.4341L38.5424 24.4115V30.3537L35.9693 31.8393V26.823Z" fill="white"/>
<path d="M32.1103 34.9655C32.1103 34.4541 32.4693 33.8323 32.9121 33.5766L38.5429 30.3256V32.3708C38.5429 32.8822 38.1839 33.504 37.7411 33.7597L32.1103 37.0107V34.9655Z" fill="white"/>
<path d="M11.4336 30.3533L17.0644 33.6042C17.5073 33.8599 17.8663 34.4817 17.8663 34.9931V37.0383L12.2355 33.7873C11.7926 33.5317 11.4336 32.9098 11.4336 32.3985L11.4336 30.3533Z" fill="white"/>
<path d="M11.4336 24.4112L13.2048 25.4338C13.6477 25.6895 14.0067 26.3113 14.0067 26.8227V31.839L11.4336 30.3533V24.4112Z" fill="white"/>
<path d="M18.4503 12.348L22.5672 9.97113L25.1402 11.4567L21.8252 13.3706C21.3823 13.6263 20.6643 13.6263 20.2215 13.3706L18.4503 12.348Z" fill="white"/>
<path d="M22.3762 10.0903L24.1474 9.06774C24.5903 8.81205 25.3083 8.81205 25.7512 9.06774L31.6393 12.4672L29.8681 13.4898C29.4252 13.7455 28.7072 13.7455 28.2644 13.4898L22.3762 10.0903Z" fill="white"/>
</svg>
